PathFileType	3	(X/Y/Z)	D:\Jess\Healthy\Labelled\HA23\20251031\SRRun01.trc
DataRate	CameraRate	NumFrames	NumMarkers	Units	OrigDataRate	OrigDataStartFrame	OrigNumFrames
250.0	250.0	4	37	mm	250.0	37188	2501
Frame#	Time	C7			T10			CLAV			LSHO			RSHO			LASIS			RASIS			LPSIS			RPSIS			LILCR			RILCR			LGTR			LTHI			LLTHI			LLEP			LMEP			LPSH			LLSH			LDSH			LLMAL			LMMAL			LTOE			L5TH			LHEE			RGTR			RTHI			RLTHI			RLEP			RMEP			RPSH			RLSH			RDSH			RLMAL			RMMAL			RTOE			R5TH			RHEE			
		X1	Y1	Z1	X2	Y2	Z2	X3	Y3	Z3	X4	Y4	Z4	X5	Y5	Z5	X6	Y6	Z6	X7	Y7	Z7	X8	Y8	Z8	X9	Y9	Z9	X10	Y10	Z10	X11	Y11	Z11	X12	Y12	Z12	X13	Y13	Z13	X14	Y14	Z14	X15	Y15	Z15	X16	Y16	Z16	X17	Y17	Z17	X18	Y18	Z18	X19	Y19	Z19	X20	Y20	Z20	X21	Y21	Z21	X22	Y22	Z22	X23	Y23	Z23	X24	Y24	Z24	X25	Y25	Z25	X26	Y26	Z26	X27	Y27	Z27	X28	Y28	Z28	X29	Y29	Z29	X30	Y30	Z30	X31	Y31	Z31	X32	Y32	Z32	X33	Y33	Z33	X34	Y34	Z34	X35	Y35	Z35	X36	Y36	Z36	X37	Y37	Z37	

2189	148.748	900.5495628273892	1455.386410652487	-1159.119157565207	904.7071564624072	1235.22917704875	-1097.850368669178	848.6607937067764	1382.786408582362	-1293.190052097591	743.7875992999014	1462.843090182596	-1166.52820163079	1020.463240886565	1438.201182589627	-1262.909998158774	726.5389472843543	994.4900199371599	-1233.573707899906	979.4703550368417	980.3922553171373	-1256.18483072394	855.177764016237	1026.041516117102	-1062.008301567248	887.7283895121792	1027.073208202964	-1067.586590410469	697.0604835151673	1064.692283868055	-1178.598804669481	1018.722234372467	1053.973034117859	-1209.926975401971	661.0352462671023	906.3033558951636	-1159.577039125278	760.4164602138627	752.4382441535408	-1323.402636976857	698.1679415770916	649.1983990713139	-1251.037804896441	728.5236923161835	511.4767595423871	-1282.653273758248	nan	nan	nan	782.3909891027453	445.6907538881662	-1349.573595754259	737.169215042377	313.7571659159858	-1284.404138272536	785.2051925414256	255.7353807463558	-1360.959567336108	775.0523599554667	106.6768802722197	-1338.864170100763	nan	nan	nan	804.5291064435145	105.7183024748483	-1488.542162822238	771.2083702289286	57.90785139108333	-1471.567444364561	819.6574443317436	58.98982503481989	-1283.161915064754	1041.735823910037	890.7083817780051	-1205.604237634185	941.4648563441825	698.8927089280461	-1246.433958296837	1003.190662180002	639.5342148529375	-1122.634884356196	980.2819862941071	502.0795257080306	-1058.607355992565	nan	nan	nan	928.4056924249904	428.9419913402767	-1034.000436771993	994.2904010290046	422.0030352613368	-906.0265849900884	930.1058986821514	347.1181911537671	-858.5396612362063	978.5322753868345	311.1591595618039	-719.4276089737047	nan	nan	nan	930.5113417087634	172.8086555195302	-706.4202542817692	975.0640101022653	187.6038770471899	-670.6095758578185	949.8785016865943	380.6592980190229	-670.4295747369626	
2190	148.752	899.3130356203291	1452.87865956024	-1158.710092040266	903.3281413425251	1232.658397335712	-1097.489539581971	848.3572797368413	1379.662243788803	-1293.385625015826	742.6634273833201	1460.420774562405	-1167.294415886734	1019.909360606602	1435.55123783085	-1262.176362425756	726.3199666333493	991.4550545898702	-1233.394412142676	979.9699721305128	978.2101912491383	-1256.291655277312	854.6245234013603	1021.852816158987	-1061.148309577973	887.2421530774213	1022.899311882568	-1066.773789018489	696.6082429817593	1061.017728700946	-1177.768430486161	1019.444916285604	1051.334218189734	-1208.759522601618	660.9052064892995	902.6349944175903	-1159.720718291979	761.1663982797637	749.8644390569679	-1323.509237917077	698.3749211144005	646.2832882526582	-1250.937574936645	728.2805214985212	508.5085089946668	-1281.561972024604	nan	nan	nan	782.5932546457078	442.2012098315498	-1347.870911129052	737.2153719806308	311.1166453439949	-1281.58729001435	785.8743909156808	252.2750636033683	-1356.991519449182	775.7270981958188	104.2261717536362	-1332.793445595206	nan	nan	nan	805.2456438166058	101.0082172289596	-1482.241500161131	771.4134485736645	54.15572590909542	-1464.378308141034	820.1399938477887	57.98133464081536	-1276.084959298033	1041.777689252979	887.9733346391642	-1205.775223099295	942.2129467908417	696.4469478775106	-1248.819444893572	1003.938119405648	635.700219820449	-1126.000394058435	981.1685858344042	498.5582114393837	-1063.529483127521	nan	nan	nan	929.6922847737513	425.7416816483207	-1037.885872020163	995.3557705283068	422.922279970248	-909.3918156053188	931.5752553890869	348.9278313704355	-859.9485028086351	979.6964298326748	317.1331109658922	-719.6256427661272	nan	nan	nan	932.9393332127844	178.7790792209705	-703.9853877729723	977.2057380346878	194.6991175738097	-668.3242350149585	950.286664257657	387.334931090583	-672.1329192456275	
2191	148.756	898.0771653449558	1450.258877969273	-1158.283380452094	901.9428012129829	1229.913298339674	-1097.156739125178	848.0906950656795	1376.383660115551	-1293.596301888884	741.5441216936172	1457.878684976329	-1168.039268710977	1019.38401231998	1432.800969418354	-1261.403540630711	726.0140413314483	988.3410274508565	-1233.11127814449	980.4486210503669	975.8097239055147	-1256.411712702993	854.1273851257677	1017.532772585171	-1060.222750314885	886.8115198137095	1018.554991129992	-1065.879570640324	696.144964901681	1057.229166689184	-1176.818152389085	1020.200618996156	1048.39992305671	-1207.658303345319	660.726390754304	898.9614192437803	-1159.747966198321	761.7540944796172	747.4784024828983	-1323.747511668173	698.5922803866891	643.4884201201452	-1250.746264014471	728.0656201949017	505.6171487184058	-1280.465921822024	nan	nan	nan	782.7952482053481	438.7690045681916	-1346.230591444521	737.3699817231658	308.6151932791351	-1278.619953179537	786.6990267113507	248.9029034556772	-1352.809949761038	776.581806118557	101.9623775401826	-1326.268406066115	nan	nan	nan	806.0715185455178	96.38060137295805	-1475.458036672497	771.6550083299552	50.58925251510457	-1456.670796183858	820.7517356556118	57.17406364618017	-1268.507708461817	1041.803218835361	885.0401701089919	-1205.993735368867	943.0325798377415	693.8644455351315	-1251.106891984856	1004.804596884778	631.8214755615767	-1129.329221582972	982.1811169777055	495.0756360848948	-1068.459701254479	nan	nan	nan	931.1566860111534	422.5412186667421	-1041.893601947107	996.4680950449283	423.8542973533361	-912.9693329118359	933.1284025261597	350.6581719785868	-861.7160275661721	980.8250183699176	323.0314838701356	-720.2892511106285	nan	nan	nan	935.4854485935721	184.672083693701	-701.9772601541587	979.4220512164491	201.792622616105	-666.4853048791574	950.5179695022478	393.8693283458711	-674.3814992207656	
2192	148.76	896.8494798160493	1447.547455646889	-1157.85583988567	900.55666126886	1227.006441793804	-1096.846707862015	847.8608273544478	1372.968175582954	-1293.825642405629	740.4312127201076	1455.227271947629	-1168.757989459398	1018.897362418075	1429.964528418907	-1260.595246066717	725.6127639608434	985.17203930303	-1232.709619009521	980.8919041792177	973.192517895688	-1256.536523036688	853.7149799613702	1013.122041137538	-1059.235042938143	886.460063983653	1014.076348652337	-1064.906463795727	695.6769799688369	1053.359695238282	-1175.751883103866	1020.974030221932	1045.17380490311	-1206.6279767117	660.5075989060958	895.3250408223128	-1159.622633002196	762.1542436871324	745.2876412218361	-1324.086840624365	698.7993107951966	640.8484727935253	-1250.470863843852	727.8867923869807	502.8483276712643	-1279.400945452435	nan	nan	nan	783.0205654860658	435.4522893240618	-1344.667442513402	737.6313991559928	306.3002646370079	-1275.54521403132	787.6910831370682	245.6782150737313	-1348.446402734607	777.6101624335389	99.93065781403581	-1319.336886932102	nan	nan	nan	807.0046297051638	91.92649355055943	-1468.23216573619	771.9365442479346	47.2835854250094	-1448.50818607771	821.4809489316879	56.57572615390431	-1260.491471804264	1041.802954899946	881.9200208307637	-1206.268169568859	943.912140592307	691.1661858936077	-1253.310294048577	1005.778266850469	627.9150119452514	-1132.622123198892	983.3141620655979	491.6408907453356	-1073.397743408978	nan	nan	nan	932.7931181548785	419.3481489682414	-1046.020036178909	997.6192342882435	424.7754501549673	-916.7547666410323	934.7467360941292	352.2909753664336	-863.8328251412903	981.9090824976148	328.8249890692026	-721.4177592456798	nan	nan	nan	938.1340986911913	190.4646736833888	-700.403202524877	981.7040609081374	208.8529126868823	-665.1104235597512	950.5765331695496	400.2268694310878	-677.1612983269607	
